# xmcd
#
# Track frame offsets: 
#        150
#        22207
#        41110
#        58417
#        79975
#        102677
#        121717
#        140002
#        155535
#        173872
#        196002
#        217175
#        240135
#        256565
#
# Disc length: 3695 seconds
#
# Revision: 1
# Processed by: cddbd v1.5.2PL0 Copyright (c) Steve Scherf et al.
# Submitted via: ExactAudioCopy v1.3
#
DISCID=c70e6d0e
DTITLE=夏韶聲 - 回望
DYEAR=1990
DGENRE=Blues
TTITLE0=結他低泣時
TTITLE1=我是捨不得你
TTITLE2=路中情
TTITLE3=Wild World
TTITLE4=風中希冀
TTITLE5=綠印淚
TTITLE6=平凡亦快樂
TTITLE7=媽媽我沒有做錯
TTITLE8=閉著眼睛再見面
TTITLE9=你漂亮的固執
TTITLE10=珍惜這地球
TTITLE11=讓我孤單過這一晚
TTITLE12=The Fool
TTITLE13=Blue Guitar
EXTD=
EXTT0=
EXTT1=
EXTT2=
EXTT3=
EXTT4=
EXTT5=
EXTT6=
EXTT7=
EXTT8=
EXTT9=
EXTT10=
EXTT11=
EXTT12=
EXTT13=
PLAYORDER=
